<svg xmlns="http://www.w3.org/2000/svg" xmlns:xlink="http://www.w3.org/1999/xlink" width="128" zoomAndPan="magnify" viewBox="0 0 96 49.499998" height="66" preserveAspectRatio="xMidYMid meet" version="1.0"><defs><g/><clipPath id="id1"><path d="M 0.480469 23.515625 L 95.519531 23.515625 L 95.519531 33.839844 L 0.480469 33.839844 Z M 0.480469 23.515625 " clip-rule="nonzero"/></clipPath><clipPath id="id2"><path d="M 90 26 L 95.519531 26 L 95.519531 32 L 90 32 Z M 90 26 " clip-rule="nonzero"/></clipPath></defs><g fill="#ffffff" fill-opacity="1"><g transform="translate(2.407493, 46.399716)"><g><path d="M 5.132812 -35.667969 L 5.132812 0 L 17 0 L 17 -26.519531 L 31.710938 0 L 46.238281 0 L 46.238281 -8.222656 L 43.519531 -8.222656 L 43.519531 -35.667969 L 46.238281 -35.667969 L 46.238281 -43.890625 L 28.867188 -43.890625 L 28.867188 -35.667969 L 31.652344 -35.667969 L 31.652344 -17.496094 L 17 -43.890625 L 2.347656 -43.890625 L 2.347656 -35.667969 Z M 5.132812 -35.667969 "/></g></g></g><g fill="#ffffff" fill-opacity="1"><g transform="translate(49.883552, 46.399716)"><g><path d="M 13.105469 0 L 15.824219 -8.222656 L 27.757812 -8.222656 L 30.539062 0 L 42.46875 0 L 42.46875 -8.222656 L 39.625 -8.222656 L 28.5 -43.890625 L 15.578125 -43.890625 L 4.078125 -8.222656 L 1.238281 -8.222656 L 1.238281 0 Z M 22.191406 -28.867188 L 25.46875 -16.753906 L 18.421875 -16.753906 Z M 22.191406 -28.867188 "/></g></g></g><g clip-path="url(#id1)"><path fill="#c2a8a8" d="M -20.859375 23.515625 L 116.976562 23.515625 L 116.976562 33.839844 L -20.859375 33.839844 L -20.859375 23.515625 " fill-opacity="1" fill-rule="nonzero"/></g><g fill="#ffffff" fill-opacity="1"><g transform="translate(1.037797, 31.141679)"><g><path d="M 2.375 0.078125 C 1.988281 0.078125 1.640625 -0.00390625 1.328125 -0.171875 C 1.015625 -0.335938 0.765625 -0.585938 0.578125 -0.921875 C 0.390625 -1.253906 0.296875 -1.660156 0.296875 -2.140625 C 0.296875 -2.609375 0.390625 -3.015625 0.578125 -3.359375 C 0.773438 -3.703125 1.03125 -3.960938 1.34375 -4.140625 C 1.664062 -4.328125 2.015625 -4.421875 2.390625 -4.421875 C 2.660156 -4.421875 2.910156 -4.367188 3.140625 -4.265625 C 3.367188 -4.160156 3.570312 -4.023438 3.75 -3.859375 L 3.140625 -3.109375 C 3.023438 -3.222656 2.910156 -3.304688 2.796875 -3.359375 C 2.679688 -3.410156 2.554688 -3.4375 2.421875 -3.4375 C 2.253906 -3.4375 2.097656 -3.382812 1.953125 -3.28125 C 1.804688 -3.175781 1.6875 -3.03125 1.59375 -2.84375 C 1.507812 -2.65625 1.46875 -2.4375 1.46875 -2.1875 C 1.46875 -1.78125 1.550781 -1.460938 1.71875 -1.234375 C 1.894531 -1.015625 2.125 -0.90625 2.40625 -0.90625 C 2.695312 -0.90625 2.960938 -1.03125 3.203125 -1.28125 L 3.796875 -0.5625 C 3.617188 -0.34375 3.40625 -0.179688 3.15625 -0.078125 C 2.914062 0.0234375 2.65625 0.078125 2.375 0.078125 Z M 2.375 0.078125 "/></g></g></g><g fill="#ffffff" fill-opacity="1"><g transform="translate(6.749971, 31.141679)"><g><path d="M 2.3125 0.078125 C 1.914062 0.078125 1.5625 -0.0078125 1.25 -0.1875 C 0.945312 -0.375 0.710938 -0.632812 0.546875 -0.96875 C 0.378906 -1.3125 0.296875 -1.71875 0.296875 -2.1875 C 0.296875 -2.65625 0.378906 -3.054688 0.546875 -3.390625 C 0.710938 -3.734375 0.945312 -3.988281 1.25 -4.15625 C 1.5625 -4.332031 1.914062 -4.421875 2.3125 -4.421875 C 2.71875 -4.421875 3.070312 -4.332031 3.375 -4.15625 C 3.675781 -3.988281 3.910156 -3.734375 4.078125 -3.390625 C 4.242188 -3.054688 4.328125 -2.65625 4.328125 -2.1875 C 4.328125 -1.71875 4.242188 -1.3125 4.078125 -0.96875 C 3.910156 -0.632812 3.675781 -0.375 3.375 -0.1875 C 3.070312 -0.0078125 2.71875 0.078125 2.3125 0.078125 Z M 2.3125 -0.90625 C 2.570312 -0.90625 2.773438 -1.019531 2.921875 -1.25 C 3.078125 -1.476562 3.15625 -1.789062 3.15625 -2.1875 C 3.15625 -2.582031 3.078125 -2.890625 2.921875 -3.109375 C 2.773438 -3.328125 2.570312 -3.4375 2.3125 -3.4375 C 2.050781 -3.4375 1.84375 -3.328125 1.6875 -3.109375 C 1.539062 -2.890625 1.46875 -2.582031 1.46875 -2.1875 C 1.46875 -1.789062 1.539062 -1.476562 1.6875 -1.25 C 1.84375 -1.019531 2.050781 -0.90625 2.3125 -0.90625 Z M 2.3125 -0.90625 "/></g></g></g><g fill="#ffffff" fill-opacity="1"><g transform="translate(13.171119, 31.141679)"><g><path d="M 0.484375 -4.34375 L 1.65625 -4.34375 L 2.625 -2.40625 L 3.03125 -1.4375 L 3.0625 -1.4375 C 3.0625 -1.476562 3.050781 -1.566406 3.03125 -1.703125 C 2.957031 -2.316406 2.921875 -2.78125 2.921875 -3.09375 L 2.921875 -4.34375 L 4.015625 -4.34375 L 4.015625 0 L 2.828125 0 L 1.875 -1.953125 L 1.453125 -2.921875 L 1.4375 -2.921875 L 1.46875 -2.5625 C 1.539062 -2 1.578125 -1.5625 1.578125 -1.25 L 1.578125 0 L 0.484375 0 Z M 0.484375 -4.34375 "/></g></g></g><g fill="#ffffff" fill-opacity="1"><g transform="translate(19.458501, 31.141679)"><g><path d="M 1.3125 -3.390625 L 0.15625 -3.390625 L 0.15625 -4.34375 L 3.609375 -4.34375 L 3.609375 -3.390625 L 2.46875 -3.390625 L 2.46875 0 L 1.3125 0 Z M 1.3125 -3.390625 "/></g></g></g><g fill="#ffffff" fill-opacity="1"><g transform="translate(25.02353, 31.141679)"><g><path d="M 2.546875 -0.921875 L 1.328125 -0.921875 L 1.109375 0 L -0.0625 0 L 1.25 -4.34375 L 2.640625 -4.34375 L 3.96875 0 L 2.75 0 Z M 2.328125 -1.8125 L 2.265625 -2.109375 C 2.203125 -2.335938 2.144531 -2.585938 2.09375 -2.859375 L 1.9375 -3.484375 L 1.90625 -3.484375 L 1.875 -3.296875 C 1.769531 -2.804688 1.679688 -2.410156 1.609375 -2.109375 L 1.53125 -1.8125 Z M 2.328125 -1.8125 "/></g></g></g><g fill="#ffffff" fill-opacity="1"><g transform="translate(30.722327, 31.141679)"><g><path d="M 0.484375 -4.34375 L 1.765625 -4.34375 C 2.460938 -4.34375 3.007812 -4.164062 3.40625 -3.8125 C 3.800781 -3.46875 4 -2.925781 4 -2.1875 C 4 -1.445312 3.800781 -0.894531 3.40625 -0.53125 C 3.019531 -0.175781 2.492188 0 1.828125 0 L 0.484375 0 Z M 1.703125 -0.921875 C 2.054688 -0.921875 2.332031 -1.015625 2.53125 -1.203125 C 2.726562 -1.390625 2.828125 -1.71875 2.828125 -2.1875 C 2.828125 -2.65625 2.726562 -2.976562 2.53125 -3.15625 C 2.332031 -3.332031 2.054688 -3.421875 1.703125 -3.421875 L 1.625 -3.421875 L 1.625 -0.921875 Z M 1.703125 -0.921875 "/></g></g></g><g fill="#ffffff" fill-opacity="1"><g transform="translate(36.809055, 31.141679)"><g><path d="M 2.3125 0.078125 C 1.914062 0.078125 1.5625 -0.0078125 1.25 -0.1875 C 0.945312 -0.375 0.710938 -0.632812 0.546875 -0.96875 C 0.378906 -1.3125 0.296875 -1.71875 0.296875 -2.1875 C 0.296875 -2.65625 0.378906 -3.054688 0.546875 -3.390625 C 0.710938 -3.734375 0.945312 -3.988281 1.25 -4.15625 C 1.5625 -4.332031 1.914062 -4.421875 2.3125 -4.421875 C 2.71875 -4.421875 3.070312 -4.332031 3.375 -4.15625 C 3.675781 -3.988281 3.910156 -3.734375 4.078125 -3.390625 C 4.242188 -3.054688 4.328125 -2.65625 4.328125 -2.1875 C 4.328125 -1.71875 4.242188 -1.3125 4.078125 -0.96875 C 3.910156 -0.632812 3.675781 -0.375 3.375 -0.1875 C 3.070312 -0.0078125 2.71875 0.078125 2.3125 0.078125 Z M 2.3125 -0.90625 C 2.570312 -0.90625 2.773438 -1.019531 2.921875 -1.25 C 3.078125 -1.476562 3.15625 -1.789062 3.15625 -2.1875 C 3.15625 -2.582031 3.078125 -2.890625 2.921875 -3.109375 C 2.773438 -3.328125 2.570312 -3.4375 2.3125 -3.4375 C 2.050781 -3.4375 1.84375 -3.328125 1.6875 -3.109375 C 1.539062 -2.890625 1.46875 -2.582031 1.46875 -2.1875 C 1.46875 -1.789062 1.539062 -1.476562 1.6875 -1.25 C 1.84375 -1.019531 2.050781 -0.90625 2.3125 -0.90625 Z M 2.3125 -0.90625 "/></g></g></g><g fill="#ffffff" fill-opacity="1"><g transform="translate(43.230203, 31.141679)"><g><path d="M 2.828125 0 L 2.078125 -1.453125 L 1.625 -1.453125 L 1.625 0 L 0.484375 0 L 0.484375 -4.34375 L 2.125 -4.34375 C 2.644531 -4.34375 3.0625 -4.234375 3.375 -4.015625 C 3.695312 -3.804688 3.859375 -3.445312 3.859375 -2.9375 C 3.859375 -2.644531 3.796875 -2.390625 3.671875 -2.171875 C 3.546875 -1.960938 3.375 -1.800781 3.15625 -1.6875 L 4.109375 0 Z M 1.625 -2.375 L 2.046875 -2.375 C 2.273438 -2.375 2.445312 -2.421875 2.5625 -2.515625 C 2.675781 -2.609375 2.734375 -2.75 2.734375 -2.9375 C 2.734375 -3.125 2.675781 -3.253906 2.5625 -3.328125 C 2.457031 -3.398438 2.285156 -3.4375 2.046875 -3.4375 L 1.625 -3.4375 Z M 1.625 -2.375 "/></g></g></g><g fill="#ffffff" fill-opacity="1"><g transform="translate(49.236671, 31.141679)"><g><path d="M 2.546875 -0.921875 L 1.328125 -0.921875 L 1.109375 0 L -0.0625 0 L 1.25 -4.34375 L 2.640625 -4.34375 L 3.96875 0 L 2.75 0 Z M 2.328125 -1.8125 L 2.265625 -2.109375 C 2.203125 -2.335938 2.144531 -2.585938 2.09375 -2.859375 L 1.9375 -3.484375 L 1.90625 -3.484375 L 1.875 -3.296875 C 1.769531 -2.804688 1.679688 -2.410156 1.609375 -2.109375 L 1.53125 -1.8125 Z M 2.328125 -1.8125 "/></g></g></g><g fill="#ffffff" fill-opacity="1"><g transform="translate(54.935468, 31.141679)"><g/></g></g><g fill="#ffffff" fill-opacity="1"><g transform="translate(58.065906, 31.141679)"><g><path d="M 0.484375 -4.34375 L 2.078125 -4.34375 C 2.597656 -4.34375 3.019531 -4.226562 3.34375 -4 C 3.675781 -3.78125 3.84375 -3.414062 3.84375 -2.90625 C 3.84375 -2.5625 3.757812 -2.273438 3.59375 -2.046875 C 3.4375 -1.816406 3.226562 -1.644531 2.96875 -1.53125 C 2.707031 -1.425781 2.414062 -1.375 2.09375 -1.375 L 1.625 -1.375 L 1.625 0 L 0.484375 0 Z M 2.046875 -2.28125 C 2.265625 -2.28125 2.429688 -2.332031 2.546875 -2.4375 C 2.660156 -2.550781 2.71875 -2.707031 2.71875 -2.90625 C 2.71875 -3.09375 2.65625 -3.226562 2.53125 -3.3125 C 2.414062 -3.394531 2.242188 -3.4375 2.015625 -3.4375 L 1.625 -3.4375 L 1.625 -2.28125 Z M 2.046875 -2.28125 "/></g></g></g><g fill="#ffffff" fill-opacity="1"><g transform="translate(63.925229, 31.141679)"><g><path d="M 2.265625 0.078125 C 1.648438 0.078125 1.191406 -0.0976562 0.890625 -0.453125 C 0.597656 -0.804688 0.453125 -1.351562 0.453125 -2.09375 L 0.453125 -4.34375 L 1.609375 -4.34375 L 1.609375 -1.96875 C 1.609375 -1.582031 1.65625 -1.304688 1.75 -1.140625 C 1.851562 -0.984375 2.023438 -0.90625 2.265625 -0.90625 C 2.492188 -0.90625 2.660156 -0.984375 2.765625 -1.140625 C 2.867188 -1.304688 2.921875 -1.582031 2.921875 -1.96875 L 2.921875 -4.34375 L 4.046875 -4.34375 L 4.046875 -2.09375 C 4.046875 -1.351562 3.898438 -0.804688 3.609375 -0.453125 C 3.316406 -0.0976562 2.867188 0.078125 2.265625 0.078125 Z M 2.265625 0.078125 "/></g></g></g><g fill="#ffffff" fill-opacity="1"><g transform="translate(70.212608, 31.141679)"><g><path d="M 0.484375 -4.34375 L 2.046875 -4.34375 C 2.554688 -4.34375 2.957031 -4.257812 3.25 -4.09375 C 3.539062 -3.9375 3.6875 -3.660156 3.6875 -3.265625 C 3.6875 -3.066406 3.632812 -2.875 3.53125 -2.6875 C 3.4375 -2.507812 3.304688 -2.390625 3.140625 -2.328125 L 3.140625 -2.296875 C 3.367188 -2.234375 3.550781 -2.113281 3.6875 -1.9375 C 3.820312 -1.769531 3.890625 -1.550781 3.890625 -1.28125 C 3.890625 -0.851562 3.726562 -0.53125 3.40625 -0.3125 C 3.082031 -0.101562 2.675781 0 2.1875 0 L 0.484375 0 Z M 2.015625 -2.640625 C 2.203125 -2.640625 2.335938 -2.675781 2.421875 -2.75 C 2.515625 -2.832031 2.5625 -2.945312 2.5625 -3.09375 C 2.5625 -3.226562 2.515625 -3.320312 2.421875 -3.375 C 2.335938 -3.4375 2.203125 -3.46875 2.015625 -3.46875 L 1.625 -3.46875 L 1.625 -2.640625 Z M 2.09375 -0.875 C 2.539062 -0.875 2.765625 -1.035156 2.765625 -1.359375 C 2.765625 -1.515625 2.710938 -1.628906 2.609375 -1.703125 C 2.503906 -1.773438 2.332031 -1.8125 2.09375 -1.8125 L 1.625 -1.8125 L 1.625 -0.875 Z M 2.09375 -0.875 "/></g></g></g><g fill="#ffffff" fill-opacity="1"><g transform="translate(76.098684, 31.141679)"><g><path d="M 0.484375 -4.34375 L 1.625 -4.34375 L 1.625 -0.96875 L 3.28125 -0.96875 L 3.28125 0 L 0.484375 0 Z M 0.484375 -4.34375 "/></g></g></g><g fill="#ffffff" fill-opacity="1"><g transform="translate(81.436307, 31.141679)"><g><path d="M 0.484375 -4.34375 L 1.625 -4.34375 L 1.625 0 L 0.484375 0 Z M 0.484375 -4.34375 "/></g></g></g><g fill="#ffffff" fill-opacity="1"><g transform="translate(85.342605, 31.141679)"><g><path d="M 2.375 0.078125 C 1.988281 0.078125 1.640625 -0.00390625 1.328125 -0.171875 C 1.015625 -0.335938 0.765625 -0.585938 0.578125 -0.921875 C 0.390625 -1.253906 0.296875 -1.660156 0.296875 -2.140625 C 0.296875 -2.609375 0.390625 -3.015625 0.578125 -3.359375 C 0.773438 -3.703125 1.03125 -3.960938 1.34375 -4.140625 C 1.664062 -4.328125 2.015625 -4.421875 2.390625 -4.421875 C 2.660156 -4.421875 2.910156 -4.367188 3.140625 -4.265625 C 3.367188 -4.160156 3.570312 -4.023438 3.75 -3.859375 L 3.140625 -3.109375 C 3.023438 -3.222656 2.910156 -3.304688 2.796875 -3.359375 C 2.679688 -3.410156 2.554688 -3.4375 2.421875 -3.4375 C 2.253906 -3.4375 2.097656 -3.382812 1.953125 -3.28125 C 1.804688 -3.175781 1.6875 -3.03125 1.59375 -2.84375 C 1.507812 -2.65625 1.46875 -2.4375 1.46875 -2.1875 C 1.46875 -1.78125 1.550781 -1.460938 1.71875 -1.234375 C 1.894531 -1.015625 2.125 -0.90625 2.40625 -0.90625 C 2.695312 -0.90625 2.960938 -1.03125 3.203125 -1.28125 L 3.796875 -0.5625 C 3.617188 -0.34375 3.40625 -0.179688 3.15625 -0.078125 C 2.914062 0.0234375 2.65625 0.078125 2.375 0.078125 Z M 2.375 0.078125 "/></g></g></g><g clip-path="url(#id2)"><g fill="#ffffff" fill-opacity="1"><g transform="translate(91.054779, 31.141679)"><g><path d="M 2.546875 -0.921875 L 1.328125 -0.921875 L 1.109375 0 L -0.0625 0 L 1.25 -4.34375 L 2.640625 -4.34375 L 3.96875 0 L 2.75 0 Z M 2.328125 -1.8125 L 2.265625 -2.109375 C 2.203125 -2.335938 2.144531 -2.585938 2.09375 -2.859375 L 1.9375 -3.484375 L 1.90625 -3.484375 L 1.875 -3.296875 C 1.769531 -2.804688 1.679688 -2.410156 1.609375 -2.109375 L 1.53125 -1.8125 Z M 2.328125 -1.8125 "/></g></g></g></g></svg>
